<?xml version="1.0" encoding="UTF-8"?>
<svg xmlns="http://www.w3.org/2000/svg" xmlns:xlink="http://www.w3.org/1999/xlink" width="30px" height="30px" viewBox="0 0 75 74.999997" version="1.2">
<defs>
<clipPath id="clip1">
  <path d="M 2.503906 7 L 72.019531 7 L 72.019531 71 L 2.503906 71 Z M 2.503906 7 "/>
</clipPath>
<clipPath id="clip2">
  <path d="M 6.296875 9.605469 L 68.546875 9.605469 L 68.546875 65.855469 L 6.296875 65.855469 Z M 6.296875 9.605469 "/>
</clipPath>
</defs>
<g id="surface1">
<g clip-path="url(#clip1)" clip-rule="nonzero">
<path style=" stroke:none;fill-rule:nonzero;fill:rgb(0%,0%,0%);fill-opacity:1;" d="M 22.363281 7.265625 C 12.296875 7.265625 4.015625 14.980469 2.773438 24.867188 C 2.601562 25.675781 2.503906 26.523438 2.503906 27.472656 C 2.503906 39.015625 11.171875 49.433594 19.457031 57.167969 C 27.71875 64.921875 35.980469 70.03125 35.980469 70.03125 L 37.261719 70.839844 L 38.542969 70.03125 C 38.542969 70.03125 46.804688 64.921875 55.085938 57.167969 C 63.347656 49.433594 72.019531 39.015625 72.019531 27.472656 C 72.019531 26.523438 71.921875 25.695312 71.765625 24.90625 C 70.507812 14.980469 62.242188 7.265625 52.15625 7.265625 C 45.988281 7.265625 40.886719 10.542969 37.261719 15.039062 C 33.632812 10.542969 28.53125 7.265625 22.363281 7.265625 Z M 22.363281 12.316406 C 27.835938 12.316406 32.527344 15.316406 35.128906 19.777344 L 37.261719 23.445312 L 39.394531 19.777344 C 41.992188 15.316406 46.6875 12.316406 52.15625 12.316406 C 59.78125 12.316406 65.949219 18.097656 66.859375 25.617188 L 66.898438 25.8125 C 66.996094 26.289062 67.054688 26.820312 67.054688 27.472656 C 67.054688 36.3125 59.585938 46.097656 51.710938 53.457031 C 44.496094 60.226562 38.40625 63.996094 37.261719 64.726562 C 36.117188 63.996094 30.027344 60.226562 22.792969 53.457031 C 14.9375 46.097656 7.46875 36.3125 7.46875 27.472656 C 7.46875 26.800781 7.527344 26.265625 7.625 25.8125 L 7.664062 25.695312 L 7.664062 25.578125 C 8.59375 18.097656 14.742188 12.316406 22.363281 12.316406 Z M 22.363281 12.316406 "/>
</g>
<g clip-path="url(#clip2)" clip-rule="nonzero">
<path style=" stroke:none;fill-rule:nonzero;fill:rgb(100%,8.628845%,8.628845%);fill-opacity:1;" d="M 68.339844 23.574219 C 64.832031 5.558594 42.84375 5.257812 37.421875 22.101562 C 32.003906 5.257812 10.015625 5.558594 6.507812 23.574219 C 3.324219 39.921875 37.421875 65.707031 37.421875 65.707031 C 37.421875 65.707031 71.519531 39.921875 68.339844 23.574219 Z M 68.339844 23.574219 "/>
</g>
</g>
</svg>
